<?xml version="1.0" standalone="no"?>
<!DOCTYPE svg PUBLIC "-//W3C//DTD SVG 20010904//EN"
 "http://www.w3.org/TR/2001/REC-SVG-20010904/DTD/svg10.dtd">
<svg version="1.0" xmlns="http://www.w3.org/2000/svg"
 width="504.000000pt" height="326.000000pt" viewBox="0 0 504.000000 326.000000"
 preserveAspectRatio="xMidYMid meet">

<g transform="translate(0.000000,326.000000) scale(0.100000,-0.100000)"
fill="#000000" stroke="none">
<path d="M212 3235 c-85 -26 -146 -84 -189 -180 -17 -38 -18 -112 -21 -1285
-2 -868 1 -1261 8 -1297 21 -98 110 -197 203 -225 32 -10 211 -13 785 -13
l744 0 24 28 c29 34 31 66 4 100 l-21 26 -742 3 c-707 3 -743 4 -773 22 -17
10 -40 33 -50 50 -18 30 -19 70 -19 1096 l0 1065 1395 5 c767 3 1396 6 1398 8
16 12 30 75 23 96 -23 60 77 56 -1439 56 l-1384 0 4 98 c4 113 23 156 78 184
33 17 124 18 1468 18 l1433 0 24 25 c16 15 25 36 25 55 0 19 -9 40 -25 55
l-24 25 -1443 -1 c-1182 0 -1451 -3 -1486 -14z"/>
<path d="M3424 3056 c-115 -53 -168 -196 -115 -312 l19 -41 -340 -459 c-525
-709 -488 -657 -488 -697 0 -61 67 -97 117 -62 12 8 197 253 413 545 215 291
395 530 398 530 4 0 13 -10 21 -22 8 -13 246 -355 529 -762 351 -503 511 -741
503 -746 -7 -4 -187 -58 -399 -120 -213 -62 -484 -141 -602 -175 -266 -78
-910 -265 -930 -270 -10 -3 -49 44 -117 143 -56 81 -128 185 -161 232 l-60 85
104 140 c114 153 122 178 79 220 -24 24 -57 31 -89 19 -9 -4 -55 -59 -103
-123 -47 -64 -87 -118 -89 -120 -2 -2 -26 6 -53 18 -118 50 -254 1 -307 -113
-28 -59 -32 -138 -9 -191 15 -38 432 -643 474 -688 56 -62 146 -87 232 -67 41
10 64 24 105 64 59 58 79 110 72 188 -3 27 -3 48 -2 48 2 0 67 18 145 41 149
43 158 43 159 -6 0 -38 57 -140 100 -179 96 -87 177 -100 370 -61 202 41 250
58 309 111 96 87 127 194 96 342 -9 46 -15 85 -13 87 2 2 183 57 402 121 l398
116 37 -36 c90 -88 227 -88 322 1 79 74 100 184 53 275 -25 49 -904 1309 -935
1341 -33 32 -67 35 -103 6 -20 -16 -26 -29 -26 -57 0 -32 59 -121 465 -702
337 -483 464 -673 465 -693 0 -57 -78 -99 -122 -64 -15 10 -228 314 -1016
1447 -113 162 -223 319 -244 349 -45 64 -50 107 -15 139 50 47 92 27 167 -80
37 -54 74 -73 111 -59 30 11 45 28 54 61 5 20 -5 42 -43 101 -27 41 -66 89
-86 106 -70 57 -167 69 -252 29z m-1410 -2138 c14 -13 123 -162 241 -333 149
-214 215 -318 215 -336 0 -36 -28 -68 -66 -75 -26 -5 -37 -1 -62 23 -17 15
-125 165 -241 332 -230 331 -238 348 -185 390 34 27 67 27 98 -1z m1635 -380
c18 -85 9 -129 -36 -178 -39 -44 -47 -47 -233 -85 -151 -32 -185 -29 -239 21
-38 34 -67 101 -59 139 2 14 54 33 238 86 129 38 249 73 265 78 17 5 35 8 40
7 6 -2 16 -32 24 -68z"/>
<path d="M381 2983 c-53 -45 -24 -133 44 -133 72 0 105 81 53 130 -27 25 -69
26 -97 3z"/>
<path d="M681 2983 c-55 -47 -24 -133 48 -133 61 0 95 55 67 108 -24 46 -76
57 -115 25z"/>
<path d="M992 2993 c-21 -8 -44 -62 -36 -86 12 -39 35 -57 74 -57 60 0 93 55
66 108 -20 39 -61 53 -104 35z"/>
<path d="M1521 2974 c-29 -37 -26 -70 9 -106 l30 -29 146 3 c139 3 147 4 165
27 26 32 25 82 -4 109 -22 21 -33 22 -174 22 l-152 0 -20 -26z"/>
<path d="M2102 2980 c-28 -26 -29 -79 -3 -111 l19 -24 267 0 267 0 19 24 c26
32 25 82 -4 109 -23 21 -30 22 -283 22 -248 0 -261 -1 -282 -20z"/>
<path d="M402 2407 l-22 -23 0 -600 0 -601 23 -21 23 -22 693 0 692 0 24 25
25 24 0 596 0 596 -25 24 -24 25 -694 0 -694 0 -21 -23z m1298 -622 l0 -485
-580 0 -580 0 0 485 0 485 580 0 580 0 0 -485z"/>
<path d="M692 947 c-27 -29 -28 -77 -3 -108 l19 -24 389 -3 c213 -1 398 0 411
3 59 15 80 80 41 129 l-20 26 -408 0 -408 0 -21 -23z"/>
</g>
</svg>
