<?xml version="1.0" encoding="utf-8"?>
<!-- Generator: Adobe Illustrator 26.5.0, SVG Export Plug-In . SVG Version: 6.00 Build 0)  -->
<svg version="1.1" id="Calque_1" xmlns="http://www.w3.org/2000/svg" xmlns:xlink="http://www.w3.org/1999/xlink" x="0px" y="0px"
	 viewBox="0 0 19 10" style="enable-background:new 0 0 19 10;" xml:space="preserve">
<style type="text/css">
	.st0{fill:#0AD5FF;stroke:#000000;stroke-width:0.5;stroke-miterlimit:10;}
	.st1{fill:#DFA200;stroke:#000000;stroke-width:0.5;stroke-miterlimit:10;}
	.st2{fill:#FFFFFF;stroke:#000000;stroke-width:0.5;stroke-miterlimit:10;}
</style>
<path class="st0" d="M8.3-6.1v5.7H6.2V-4c0,0-2.8,0.2-5.4,3.1v4h3.4l0.1,1.7H0.8v3.9c0,0,1.5,2.4,5.5,3.2V8.2l2.1-0.1V14
	c0,0-5.7,0-9.9-5.1V-1.1C-1.6-1.1,1.5-5.9,8.3-6.1z"/>
<path class="st1" d="M5.2-4.5"/>
<path class="st2" d="M12.7-4.2c0,0,4.2,1,6,4.2l1.8-0.6c0,0-3.2-5.1-10-5.6V14c0,0,6.6-0.2,10-5.4l-1.8-0.8c0,0-2.1,3.2-6.2,4.2
	l0.1-7.1h4.5L17.3,3h-4.7L12.7-4.2z"/>
</svg>
