<?xml version="1.0" encoding="utf-8"?>
<!-- Generator: Adobe Illustrator 26.5.0, SVG Export Plug-In . SVG Version: 6.00 Build 0)  -->
<svg version="1.1" id="Calque_1" xmlns="http://www.w3.org/2000/svg" xmlns:xlink="http://www.w3.org/1999/xlink" x="0px" y="0px"
	 viewBox="0 0 19 10" style="enable-background:new 0 0 19 10;" xml:space="preserve">
<style type="text/css">
	.st0{fill:#0AD5FF;stroke:#000000;stroke-miterlimit:10;}
	.st1{fill:#DFA200;stroke:#000000;stroke-miterlimit:10;}
	.st2{fill:#FFFFFF;stroke:#000000;stroke-miterlimit:10;}
</style>
<path class="st0" d="M11.7-56.36v33.96H1.23v-21.45c0,0-13.79,1.28-26.81,18.13V-2.3h17.11l0.26,10h-17.36v23.26
	c0,0,7.4,14.04,27.06,19.15V28.4l10.21-0.51V62.7c0,0-28.34,0.17-49.02-29.96V-27C-37.32-27-21.74-55.43,11.7-56.36z"/>
<path class="st1" d="M-3.62-47.17"/>
<path class="st2" d="M33.91-45.13c0,0,20.72,6.13,29.87,24.77l9.15-3.83c0,0-15.79-30.47-49.49-33.11v120c0,0,32.6-1.36,49.49-32
	l-8.89-4.85c0,0-10.21,19.15-30.64,25.02l0.26-42.09h22.21L56.38-2.3H33.15L33.91-45.13z"/>
</svg>
